HIERARCHY
ROOT Hips
{
	OFFSET 0.000000 0.000000 0.000000
	CHANNELS 6 Xposition Yposition Zposition Zrotation Yrotation Xrotation 
	JOINT LeftUpLeg_virtual
	{
		OFFSET 0.000000 0.000000 0.000000
		CHANNELS 3 Zrotation Yrotation Xrotation
		JOINT LeftUpLeg
		{
			OFFSET 8.479694 -4.795517 -0.379053
			CHANNELS 3 Zrotation Yrotation Xrotation
			JOINT LeftLeg
			{
				OFFSET 0.485052 -32.551468 0.112863
				CHANNELS 3 Zrotation Yrotation Xrotation
				JOINT LeftFoot
				{
					OFFSET 0.438033 -32.635670 -3.012641
					CHANNELS 3 Zrotation Yrotation Xrotation
					JOINT LeftToeBase
					{
						OFFSET 0.970169 -13.225353 11.864223
						CHANNELS 3 Zrotation Yrotation Xrotation
						End Site
						{
							OFFSET 0.000000 0.000000 0.000000
						}
					}
				}
			}
		}
	}
	JOINT RightUpLeg_virtual
	{
		OFFSET 0.000000 0.000000 0.000000
		CHANNELS 3 Zrotation Yrotation Xrotation
		JOINT RightUpLeg
		{
			OFFSET -8.479694 -4.795517 -0.379053
			CHANNELS 3 Zrotation Yrotation Xrotation
			JOINT RightLeg
			{
				OFFSET -0.484100 -32.551483 0.112903
				CHANNELS 3 Zrotation Yrotation Xrotation
				JOINT RightFoot
				{
					OFFSET -0.438985 -32.635651 -3.012681
					CHANNELS 3 Zrotation Yrotation Xrotation
					JOINT RightToeBase
					{
						OFFSET -0.970169 -13.225354 11.864223
						CHANNELS 3 Zrotation Yrotation Xrotation
						End Site
						{
							OFFSET 0.000000 0.000000 0.000000
						}
					}
				}
			}
		}
	}
	JOINT Spine_virtual
	{
		OFFSET 0.000000 0.000000 0.000000
		CHANNELS 3 Zrotation Yrotation Xrotation
		JOINT Spine
		{
			OFFSET 0.000000 7.722015 1.166203
			CHANNELS 3 Zrotation Yrotation Xrotation
			JOINT Spine1
			{
				OFFSET 0.000000 12.024086 0.248766
				CHANNELS 3 Zrotation Yrotation Xrotation
				JOINT Spine2
				{
					OFFSET -0.000000 11.503036 -0.491240
					CHANNELS 3 Zrotation Yrotation Xrotation
					JOINT Neck_virtual
					{
						OFFSET 0.000000 0.000000 0.000000
						CHANNELS 3 Zrotation Yrotation Xrotation
						JOINT Neck
						{
							OFFSET 0.000000 18.430687 -3.123054
							CHANNELS 3 Zrotation Yrotation Xrotation
							JOINT Head
							{
								OFFSET -0.000000 9.051071 1.034021
								CHANNELS 3 Zrotation Yrotation Xrotation
								End Site
								{
									OFFSET 0.000000 0.000000 0.000000
								}
							}
						}
					}
					JOINT LeftShoulder_virtual
					{
						OFFSET 0.000000 0.000000 0.000000
						CHANNELS 3 Zrotation Yrotation Xrotation
						JOINT LeftShoulder
						{
							OFFSET 6.197824 13.665230 -4.064723
							CHANNELS 3 Zrotation Yrotation Xrotation
							JOINT LeftArm
							{
								OFFSET 7.778132 -0.187073 -1.709282
								CHANNELS 3 Zrotation Yrotation Xrotation
								JOINT LeftForeArm
								{
									OFFSET 21.954697 0.000000 -2.041093
									CHANNELS 3 Zrotation Yrotation Xrotation
									JOINT LeftHand
									{
										OFFSET 22.992908 0.000000 -0.870901
										CHANNELS 3 Zrotation Yrotation Xrotation
										End Site
										{
											OFFSET 0.000000 0.000000 0.000000
										}
									}
								}
							}
						}
					}
					JOINT RightShoulder_virtual
					{
						OFFSET 0.000000 0.000000 0.000000
						CHANNELS 3 Zrotation Yrotation Xrotation
						JOINT RightShoulder
						{
							OFFSET -6.197824 13.665230 -4.064723
							CHANNELS 3 Zrotation Yrotation Xrotation
							JOINT RightArm
							{
								OFFSET -7.778132 -0.187073 -1.709282
								CHANNELS 3 Zrotation Yrotation Xrotation
								JOINT RightForeArm
								{
									OFFSET -21.954697 0.000000 -2.041093
									CHANNELS 3 Zrotation Yrotation Xrotation
									JOINT RightHand
									{
										OFFSET -22.992908 0.000000 -0.870901
										CHANNELS 3 Zrotation Yrotation Xrotation
										End Site
										{
											OFFSET 0.000000 0.000000 0.000000
										}
									}
								}
							}
						}
					}
				}
			}
		}
	}
}
MOTION
Frames: 11
Frame Time: 0.033333
-1.427627 73.765976 13.964630 178.547634 6.530977 179.195136 -1.651906 -3.184493 15.558269 6.198610 2.575763 -59.856581 5.036523 -0.893010 58.881135 -4.628591 -5.244197 -12.797026 0.000000 0.000000 0.000000 2.004662 -4.802507 12.408730 0.244354 -7.269455 -57.622508 2.831858 0.963405 58.576071 5.473259 6.959146 -14.576428 0.000000 0.000000 0.000000 3.244110 -4.423220 27.552867 -4.070995 1.305676 20.987674 -0.452528 -0.564606 3.431049 0.062564 -0.289762 -0.065048 -0.079048 -0.029826 5.123254 -2.811183 2.352873 -20.129997 0.000000 0.000000 0.000000 0.565549 0.535097 1.677826 0.583445 -8.525403 2.280469 -58.855289 -26.361776 8.700660 36.220882 -86.124546 -10.774833 0.000000 0.000000 0.000000 -2.693280 1.959632 0.639461 13.911652 4.032556 3.133914 44.212579 41.132024 -0.765021 -18.163150 79.246819 -23.212039 0.000000 0.000000 0.000000 
-1.126377 75.106247 12.846368 178.636549 6.725710 179.228726 -1.522179 -2.801184 15.231252 5.979177 2.810657 -56.464368 4.926820 -0.883436 55.450501 -4.349281 -5.170878 -12.152410 0.000000 0.000000 0.000000 2.154523 -4.440842 11.962353 0.105712 -7.050165 -54.076804 2.715083 1.265708 55.267835 6.068563 6.419914 -13.738710 0.000000 0.000000 0.000000 3.759884 -4.189950 25.361899 -3.724413 1.124076 19.499842 -0.451267 -0.651031 3.539217 0.092568 -0.223475 -0.077504 -0.075375 -0.100044 5.109067 -2.515268 1.842246 -19.183568 0.000000 0.000000 0.000000 0.588068 0.533063 1.609448 1.133730 -8.453035 2.114516 -59.008210 -28.266748 10.077545 69.736860 -87.096598 -43.877258 0.000000 0.000000 0.000000 -2.650954 1.958315 0.803883 13.638378 4.752868 2.775247 43.805531 42.123453 0.148602 -22.095312 82.216585 -27.792890 0.000000 0.000000 0.000000 
-0.840528 76.353951 11.649979 178.725082 6.875519 179.291810 -1.379478 -2.448902 14.774683 6.031856 2.705271 -53.021676 4.816506 -0.817321 52.189049 -3.991451 -5.175955 -11.588231 0.000000 0.000000 0.000000 2.322928 -4.135291 11.431852 0.006121 -6.862500 -50.581454 2.602033 1.577697 52.205697 6.620930 5.917031 -12.963283 0.000000 0.000000 0.000000 4.398950 -3.674822 22.785641 -3.333268 1.240248 17.912977 -0.437571 -0.712076 3.676095 0.074798 -0.159391 -0.048479 -0.090844 -0.218244 5.046796 -2.220452 1.350681 -18.023423 0.000000 0.000000 0.000000 0.613273 0.206545 1.709260 1.870155 -8.680232 1.859387 -59.297872 -30.694826 11.447976 99.049689 -86.939183 -72.966494 0.000000 0.000000 0.000000 -2.650545 1.714189 0.858047 13.617321 5.124178 2.549483 43.447417 42.947949 1.051107 -28.019461 84.609836 -34.443418 0.000000 0.000000 0.000000 
-0.552655 77.469025 10.376444 178.798848 7.040469 179.353213 -1.247546 -2.193028 14.252511 6.249618 2.360901 -49.682936 4.707862 -0.702769 49.170911 -3.564519 -5.259525 -11.193019 0.000000 0.000000 0.000000 2.492919 -3.939438 10.919476 -0.051474 -6.731737 -47.258338 2.501029 1.905793 49.523704 7.103693 5.475211 -12.331116 0.000000 0.000000 0.000000 4.934541 -3.016343 19.938483 -3.075695 1.221042 16.281211 -0.363324 -0.996375 3.799932 0.088989 -0.258626 -0.084519 -0.022384 -0.274738 5.102907 -1.969940 0.821084 -16.725574 0.000000 0.000000 0.000000 0.686664 0.242939 1.803519 2.597146 -8.769848 1.540100 -59.850304 -33.224185 13.149333 117.228859 -86.426420 -91.043587 0.000000 0.000000 0.000000 -2.570627 1.700161 1.070453 13.702875 5.596715 2.285960 43.238239 43.337714 1.690512 -38.959058 86.462217 -46.226263 0.000000 0.000000 0.000000 
-0.240875 78.435623 8.977591 178.867765 7.340895 179.429124 -1.125807 -2.026384 13.803143 6.548118 1.954945 -46.523680 4.589988 -0.562868 46.713494 -3.102865 -5.421983 -10.981062 0.000000 0.000000 0.000000 2.652488 -3.815598 10.511507 -0.048355 -6.679811 -44.213761 2.418693 2.264028 47.303681 7.494015 5.105026 -11.939329 0.000000 0.000000 0.000000 5.179370 -2.678075 16.962102 -2.972116 1.121103 14.591666 -0.296579 -0.834676 3.929181 0.090932 -0.021243 -0.089215 0.026363 -0.345305 5.140157 -1.798784 0.680876 -15.252251 0.000000 0.000000 0.000000 0.729215 0.131170 1.895545 3.265691 -8.981695 1.279871 -60.916442 -35.279382 15.253795 126.486170 -85.758407 -100.478940 0.000000 0.000000 0.000000 -2.511520 1.544751 1.229873 13.973807 5.716052 1.957714 43.565402 42.980676 2.321349 -73.233705 88.031289 -81.417945 0.000000 0.000000 0.000000 
0.113626 79.232101 7.446365 178.946599 7.717035 179.472004 -1.040579 -1.912673 13.422491 6.929101 1.483982 -43.680463 4.448341 -0.411813 44.968579 -2.645266 -5.647455 -10.856516 0.000000 0.000000 0.000000 2.774463 -3.719810 10.176243 0.010161 -6.703236 -41.577861 2.347891 2.644460 45.504301 7.802113 4.820245 -11.876130 0.000000 0.000000 0.000000 5.514735 -1.989443 14.041850 -2.882023 1.122834 12.932887 -0.171695 -1.061001 4.126256 0.153831 -0.139235 -0.092501 0.045163 -0.597711 5.391698 -1.584131 0.357750 -13.578181 0.000000 0.000000 0.000000 0.816573 0.148245 2.019803 3.716710 -8.874491 1.194377 -62.065874 -36.933893 17.590133 127.537500 -85.315668 -101.561990 0.000000 0.000000 0.000000 -2.515121 1.702746 1.436801 14.342677 5.587085 1.809750 44.237284 41.834509 2.968149 -136.543459 87.258904 -145.683277 0.000000 0.000000 0.000000 
0.469991 79.877914 5.856334 179.029681 8.182678 179.638620 -1.000694 -1.799661 13.183713 7.198656 1.277970 -41.053497 4.304372 -0.277062 43.146418 -2.192049 -5.897132 -10.874523 0.000000 0.000000 0.000000 2.865427 -3.672631 9.801226 0.005496 -6.530300 -39.343368 2.287396 3.004909 44.070143 8.037479 4.597429 -12.059502 0.000000 0.000000 0.000000 5.673801 -1.572923 11.194465 -2.817291 1.075394 11.261424 -0.081595 -1.090185 4.361382 0.147957 -0.071887 -0.042091 0.175860 -0.436416 5.708456 -1.481074 0.141709 -11.748007 0.000000 0.000000 0.000000 0.987706 0.162495 2.267145 3.912805 -8.760908 1.125715 -63.182979 -37.657223 19.477335 127.716997 -85.076618 -101.924502 0.000000 0.000000 0.000000 -2.389333 1.687244 1.723086 14.704147 5.328334 1.530559 45.400575 40.018529 3.523970 -160.121723 84.601626 -170.190979 0.000000 0.000000 0.000000 
0.820638 80.402954 4.335275 179.121137 8.731023 -179.991317 -1.003566 -1.725464 12.771206 7.363571 1.474066 -38.994113 4.128116 -0.186280 41.982639 -1.831351 -6.197640 -10.683603 0.000000 0.000000 0.000000 2.937250 -3.614352 9.447348 -0.120428 -5.991790 -37.419868 2.237756 3.301082 43.217069 8.165816 4.374093 -12.384098 0.000000 0.000000 0.000000 5.822307 -0.918162 8.522239 -2.663419 1.117757 9.567666 0.067481 -1.118725 4.581115 0.113229 0.002440 -0.006712 0.226305 -0.503692 5.996605 -1.459989 -0.053535 -9.911183 0.000000 0.000000 0.000000 1.125082 -0.101434 2.553606 3.766666 -8.536847 1.132015 -63.914110 -37.432701 20.752748 124.752217 -85.012646 -99.155058 0.000000 0.000000 0.000000 -2.356923 1.574516 1.963533 15.113057 4.648005 1.390698 46.720591 37.993173 4.033467 -167.017578 81.207124 -177.962928 0.000000 0.000000 0.000000 
1.140258 80.822304 2.976697 179.218044 9.292411 -179.510882 -1.014291 -1.572421 12.285698 7.603517 1.610385 -37.154020 3.954203 -0.020067 40.914838 -1.616813 -6.555602 -10.278989 0.000000 0.000000 0.000000 3.016807 -3.428619 8.969953 -0.237757 -5.379583 -36.045975 2.161809 3.526071 42.889183 8.185963 4.085676 -12.592807 0.000000 0.000000 0.000000 5.965784 0.085788 6.147212 -2.446576 0.934578 7.962213 0.179825 -1.212203 4.877819 0.045203 -0.017661 0.068879 0.385051 -0.465276 6.347393 -1.318710 -0.179384 -8.114654 0.000000 0.000000 0.000000 1.250253 -0.075945 2.998926 3.448680 -8.304249 1.199375 -64.233578 -36.726050 21.450969 119.769922 -85.050820 -94.372389 0.000000 0.000000 0.000000 -2.280409 1.526035 2.170002 15.543344 4.071139 1.439725 47.482693 36.176152 3.820209 -169.254383 77.975393 178.955929 0.000000 0.000000 0.000000 
1.433381 81.149887 1.848688 179.327491 9.593922 -179.513313 -1.059058 -1.241659 11.968837 7.741563 1.998343 -35.313075 3.770886 0.056173 40.061426 -1.590621 -7.005726 -9.940597 0.000000 0.000000 0.000000 3.042530 -3.224195 8.765062 -0.381445 -4.675079 -34.381516 2.057076 3.664810 42.089152 8.128681 3.745642 -12.715586 0.000000 0.000000 0.000000 5.903343 -0.361021 4.473365 -2.230854 1.045450 6.653127 0.237560 -1.119940 5.173817 0.079618 0.139658 -0.000977 0.520854 -0.417267 6.689831 -1.214167 -0.321540 -6.382249 0.000000 0.000000 0.000000 1.388149 0.033009 3.195679 2.965650 -7.745480 1.399508 -64.263433 -35.390540 21.598069 112.023169 -85.272460 -86.797320 0.000000 0.000000 0.000000 -2.204359 1.771925 2.583902 15.707758 3.767614 1.049826 47.914747 34.618705 3.400977 -170.602225 75.406313 176.831070 0.000000 0.000000 0.000000 
1.706507 81.386627 0.908062 179.424452 9.863998 -179.551303 -1.097728 -0.822226 11.673776 7.849272 2.446559 -33.820208 3.606824 0.109716 39.370320 -1.716954 -7.466628 -9.678049 0.000000 0.000000 0.000000 3.053249 -2.804939 8.770870 -0.510845 -3.899588 -32.767850 1.927093 3.741097 40.821493 8.019283 3.375493 -12.827367 0.000000 0.000000 0.000000 5.931374 0.154957 3.220856 -1.840833 1.164999 5.499587 0.364806 -1.181698 5.539906 0.087973 0.140001 0.028916 0.589783 -0.405571 6.944535 -1.225904 -0.395019 -4.757459 0.000000 0.000000 0.000000 1.496403 0.002709 3.491199 2.444926 -7.353276 1.495969 -63.968082 -34.203525 21.458552 104.901727 -85.475412 -79.868366 0.000000 0.000000 0.000000 -2.129731 1.671992 2.851804 15.860293 3.374245 0.858709 47.838764 33.591656 2.527701 -171.333779 73.657539 175.388166 0.000000 0.000000 0.000000 
